<svg aria-hidden="true" style="position: absolute; width: 0; height: 0; overflow: hidden;" version="1.1" xmlns="http://www.w3.org/2000/svg" xmlns:xlink="http://www.w3.org/1999/xlink">
<defs>
<symbol id="icon-logo-ice-f" viewBox="0 0 32 32">
<path  d="M8.511 14.779h14.98v-0.606c0-1.497-0.219-2.861-0.658-4.035-1.897 1.404-4.313 2.136-6.718 2.14-2.477 0.004-4.954-0.761-6.864-2.353-0.495 1.221-0.741 2.66-0.741 4.248v0.606l0.002 0zM21.971 8.478c-0.148-0.213-0.309-0.415-0.48-0.606-1.217-1.356-3.040-2.153-5.491-2.153s-4.274 0.796-5.491 2.153c-0.117 0.132-0.23 0.269-0.337 0.41 1.592 1.458 3.761 2.158 5.944 2.155 2.125-0.004 4.25-0.675 5.856-1.958zM21.382 28.131v2.94c-0.6 0.215-1.217 0.395-1.849 0.537v-3.478h-6.911v3.511c-0.632-0.135-1.249-0.308-1.849-0.515v-2.994h-0.152c-1.089 0-2.079-0.445-2.796-1.161v-0.004c-0.717-0.717-1.162-1.706-1.162-2.794v-4.226c-0.619-0.057-1.177-0.333-1.591-0.748-0.469-0.469-0.76-1.115-0.76-1.828 0-0.712 0.291-1.356 0.76-1.825l0.004-0.004c0.417-0.415 0.973-0.691 1.588-0.749v-0.617c0-3.048 0.815-5.679 2.475-7.529 1.569-1.749 3.85-2.776 6.864-2.776 3.013 0 5.295 1.027 6.864 2.776 1.66 1.851 2.475 4.482 2.475 7.529v0.617c0.619 0.057 1.177 0.334 1.591 0.749 0.469 0.469 0.76 1.115 0.76 1.829 0 0.71-0.291 1.354-0.76 1.825l-0.004 0.004c-0.417 0.417-0.973 0.691-1.588 0.748v4.226c0 1.089-0.444 2.079-1.162 2.796s-1.707 1.161-2.796 1.161l-0.004-0.001zM23.491 19.957h-1.475v1.669c0 0.821-0.335 1.566-0.874 2.105s-1.286 0.875-2.105 0.875c-0.821 0-1.566-0.336-2.105-0.875s-0.874-1.286-0.874-2.105v-1.669h-7.544v4.215c0 0.58 0.237 1.108 0.619 1.492l0.002-0.002c0.382 0.382 0.91 0.621 1.49 0.621h10.761c0.578 0 1.106-0.237 1.489-0.621 0.382-0.381 0.621-0.91 0.621-1.49v-4.215h-0.004zM6.681 16.639c-0.449 0-0.743 0.385-0.743 0.73 0 0.341 0.282 0.739 0.734 0.739h11.231v3.518c0 0.31 0.128 0.593 0.334 0.799s0.487 0.333 0.798 0.333c0.309 0 0.593-0.128 0.798-0.333s0.334-0.487 0.334-0.799v-3.518h4.941c0.285 0 0.736-0.222 0.736-0.739-0.002-0.506-0.461-0.73-0.736-0.73h-18.427z"></path>
</symbol>
</defs>
</svg>
